<?xml version="1.0" encoding="UTF-8" standalone="no"?>
<svg width="256" height="256" viewBox="0 0 256 256" fill="none" xmlns="http://www.w3.org/2000/svg">
  <circle cx="128" cy="128" r="128" fill="#0D6EFD"/>
  <path d="M128 48C83.8172 48 48 83.8172 48 128C48 172.183 83.8172 208 128 208C172.183 208 208 172.183 208 128C208 83.8172 172.183 48 128 48ZM128 68C161.137 68 188 94.8629 188 128C188 161.137 161.137 188 128 188C94.8629 188 68 161.137 68 128C68 94.8629 94.8629 68 128 68Z" fill="white"/>
  <circle cx="128" cy="128" r="40" fill="white"/>
  <path d="M128 108C116.954 108 108 116.954 108 128C108 139.046 116.954 148 128 148C139.046 148 148 139.046 148 128C148 116.954 139.046 108 128 108ZM128 124C130.209 124 132 125.791 132 128C132 130.209 130.209 132 128 132C125.791 132 124 130.209 124 128C124 125.791 125.791 124 128 124Z" fill="#0D6EFD"/>
</svg>
